<region> sample=../samples/TUBA_34.wav pitch_keycenter=39 lokey=0 hikey=39 tune=-15 loop_start=1372 loop_end=1652 offset=0
<region> sample=../samples/TUBA_45.wav pitch_keycenter=50 lokey=40 hikey=55 tune=-37 loop_start=1032 loop_end=1178 offset=0
<region> sample=../samples/TRMBN62A.wav pitch_keycenter=62 lokey=56 hikey=64 tune=21 loop_start=1916 loop_end=1991 offset=0
<region> sample=../samples/TRMBN68A.wav pitch_keycenter=68 lokey=65 hikey=72 tune=29 loop_start=2652 loop_end=2705 offset=0
<region> sample=../samples/TRMBN77A.wav pitch_keycenter=77 lokey=73 hikey=81 tune=23 loop_start=1569 loop_end=1600 offset=0
<region> sample=../samples/TRMBN86A.wav pitch_keycenter=86 lokey=82 hikey=88 tune=21 loop_start=893 loop_end=949 offset=0
<region> sample=../samples/TRMBN93A.wav pitch_keycenter=92 lokey=89 hikey=93 tune=-36 loop_start=460 loop_end=472 offset=0
<region> sample=../samples/TRMPTA1.wav pitch_keycenter=89 lokey=94 hikey=103 tune=23 loop_start=444 loop_end=459 offset=0
<region> sample=../samples/S_SAXA8.wav pitch_keycenter=95 lokey=104 hikey=127 tune=-25 loop_start=366 loop_end=409 offset=0
